<?xml version="1.0" standalone="no"?>
<!DOCTYPE svg PUBLIC "-//W3C//DTD SVG 20010904//EN"
 "http://www.w3.org/TR/2001/REC-SVG-20010904/DTD/svg10.dtd">
<svg version="1.0" xmlns="http://www.w3.org/2000/svg"
 width="700.000000pt" height="700.000000pt" viewBox="0 0 700.000000 700.000000"
 preserveAspectRatio="xMidYMid meet">
<metadata>
Created by potrace 1.14, written by Peter Selinger 2001-2017
</metadata>
<g transform="translate(0.000000,700.000000) scale(0.100000,-0.100000)"
fill="#000000" stroke="none">
<path d="M700 3967 l0 -3033 175 0 175 0 0 2858 0 2858 1576 0 1575 0 568
-567 c312 -313 574 -573 582 -580 13 -11 15 74 15 740 l-1 752 -2332 3 -2333
2 0 -3033z"/>
<path d="M1289 6416 c-1 -1 -3 -1366 -3 -3033 l-2 -3033 2086 0 2085 0 -402
402 c-354 354 -405 401 -420 391 -43 -30 -202 -107 -281 -138 -191 -73 -379
-104 -602 -100 -85 2 -164 5 -175 8 -11 3 -40 8 -65 12 -71 12 -74 12 -157 35
-579 162 -1028 641 -1148 1224 -24 118 -26 138 -30 306 -5 226 27 407 110 620
93 241 282 500 480 656 28 21 52 41 55 44 3 4 38 28 78 54 197 130 433 217
683 253 123 18 405 8 518 -18 25 -6 57 -13 71 -15 105 -20 350 -124 472 -200
139 -87 311 -242 415 -374 44 -56 163 -241 163 -254 0 -2 18 -42 40 -89 84
-181 130 -389 135 -612 7 -296 -48 -530 -186 -794 l-60 -115 400 -400 401
-401 0 1876 0 1876 -909 909 -910 909 -1420 1 c-782 0 -1422 0 -1422 0z m3551
-1105 c467 -467 851 -855 852 -862 3 -12 -141 -14 -859 -15 -599 0 -863 3
-864 10 -3 33 -4 1702 -1 1709 2 4 8 7 13 7 6 0 392 -382 859 -849z"/>
<path d="M3728 3895 c-2 -1 -37 -5 -78 -8 -41 -3 -82 -8 -90 -11 -8 -3 -28 -7
-45 -9 -138 -20 -345 -107 -500 -210 -226 -151 -435 -417 -520 -662 -9 -27
-20 -57 -23 -65 -3 -8 -6 -19 -7 -25 -2 -5 -8 -30 -15 -55 -37 -134 -51 -400
-29 -531 52 -306 183 -563 395 -775 177 -177 408 -309 634 -362 25 -6 70 -17
100 -24 83 -20 404 -16 502 5 226 50 424 141 599 276 l25 20 720 -720 c772
-772 752 -754 827 -730 59 20 92 94 69 153 -4 10 -330 341 -725 736 -394 395
-717 721 -717 724 0 4 29 50 65 103 159 234 242 488 247 751 2 92 -8 251 -17
277 -3 7 -6 23 -9 37 -21 128 -99 323 -178 449 -82 131 -211 277 -307 349 -20
15 -38 30 -41 33 -11 13 -148 98 -208 128 -107 54 -257 104 -377 126 -67 12
-289 27 -297 20z m322 -314 c224 -57 399 -156 556 -317 214 -219 337 -523 321
-797 -22 -380 -274 -751 -635 -931 -58 -29 -208 -81 -262 -91 -19 -4 -57 -11
-85 -15 -27 -5 -115 -7 -195 -5 -159 4 -245 21 -385 77 -376 148 -653 493
-713 888 -29 195 26 451 140 645 172 292 440 484 776 555 121 26 361 21 482
-9z"/>
<path d="M3075 3131 c-49 -23 -69 -47 -89 -103 -29 -86 15 -179 101 -214 26
-11 161 -14 703 -14 714 0 710 0 763 48 47 43 67 129 42 189 -21 50 -42 72
-90 94 -38 17 -81 19 -715 19 -637 0 -677 -1 -715 -19z"/>
<path d="M3105 2675 c-145 -37 -173 -241 -42 -316 l42 -24 685 0 c654 0 687 1
723 19 72 35 111 128 86 204 -15 48 -63 98 -108 114 -47 15 -1325 18 -1386 3z"/>
<path d="M3100 2207 c-119 -30 -163 -192 -77 -285 51 -56 35 -55 772 -55 746
0 708 -3 766 60 81 86 49 229 -61 276 -31 13 -1348 18 -1400 4z"/>
</g>
</svg>
