<svg xmlns="http://www.w3.org/2000/svg" xml:space="preserve" width="200" height="200" viewBox="0 0 60 60">
  <path fill="#777" d="M46 13V0H6v52h3V3h27z"/>
  <path fill="gold" d="M53.7 58.3 41.5 46.06a11.84 11.84 0 0 0-9.03-19.45 11.84 11.84 0 0 0-11.83 11.83 11.84 11.84 0 0 0 19.44 9.04L52.3 59.7a1 1 0 0 0 1.42 0 1 1 0 0 0 0-1.42zM22.63 38.44a9.84 9.84 0 0 1 19.66 0 9.84 9.84 0 0 1-19.66 0z"/>
  <path fill="red" stroke="#666" d="M38 41.5H27a1 1 0 1 0 0 2h11a1 1 0 1 0 0-2z"/>
  <path fill="#90ee90" stroke="#666" d="M38 37.5H27a1 1 0 1 0 0 2h11a1 1 0 1 0 0-2zm0-4H27a1 1 0 1 0 0 2h11a1 1 0 1 0 0-2z"/>
  <path fill="#444" d="M32.45 52.28a13.84 13.84 0 1 1 13.83-13.83c0 2.73-.8 5.27-2.17 7.42L51 52.76V20.59L35.41 5H11v52h35.76l-6.9-6.9a13.72 13.72 0 0 1-7.4 2.18zm1.55-45c0-.1.13-.15.2-.08l14.6 14.6c.07.07.02.2-.09.2H34V7.29z"/>
</svg>
